<svg xmlns="http://www.w3.org/2000/svg" viewBox="0 0 1026.34 258.76"><defs><style>.cls-1{fill:#242424;}.cls-2{fill:#221e19;}.cls-3{fill:#36b270;}</style></defs><g id="Layer_2" data-name="Layer 2"><g id="Logo-RGB-Negative"><path class="cls-1" d="M70.23,170.39H35.91v82.94H0V30.88H91.84c48.31,0,75.64,28.59,75.64,70.55,0,36.54-20.67,60.37-55.94,67L178,253.33H133.79ZM35.91,138.61H88c29.55,0,43.21-15.26,43.21-36.87S117.26,65.2,88,65.2H35.91Z"/><path class="cls-1" d="M373.11,175.41h-142c2.86,32.09,25.42,49.89,54.66,49.89,21,0,38.45-8.9,46.72-26.06h37.18c-13.67,39.09-47,57.52-84.21,57.52-53.08,0-90.89-38.14-90.89-90.89S232,74.35,284.77,74.35C341,74.35,376.61,117.88,373.11,175.41ZM233,146.17H334.66c-5.4-23.84-23.52-40.68-49.89-40.68C257.44,105.49,239,122.65,233,146.17Z"/><path class="cls-1" d="M537.54,243.93c-9.53,5.72-29.87,12.71-49.89,12.71-35.91,0-63.88-22.57-63.88-70.87V111.72H391.36V78h32.41V38.32l35.91-7.95V78H531.5v33.68H459.68v72.14c0,25.43,11.76,39.41,34.32,39.41,11.13,0,23.52-3.81,37.19-8.58Z"/><path class="cls-1" d="M1026.34,143V253.31H990.43v-103c0-27-11.76-41.31-38.14-41.31-30.82,0-47.35,20-47.35,53.71v90.56H869V78.53h35.91v28.92c12.4-20.34,31.15-32.73,58.48-32.73C1002.82,74.72,1026.34,100.45,1026.34,143Z"/><path class="cls-1" d="M785.6,78.81h35.91V253.59H785.6Z"/><path class="cls-1" d="M826.92,21.93c0,13-9.85,22.56-23.52,22.56-13,0-23.2-9.53-23.2-22.56C780.2,9.21,790.37,0,803.4,0,817.07,0,826.92,9.21,826.92,21.93Z"/><path class="cls-2" d="M702.05,78.56v27.87C689.48,85.38,667,73.14,645.54,73.14c-49.72,0-90,41.52-90,92.82a94.22,94.22,0,0,0,18.76,56.75l22.88-22.88a59.48,59.48,0,1,1,15.3,15.23l-23.29,23.29a88,88,0,0,0,56.32,20.41c21.42,0,39.45-9.07,56.51-30.53v25.11H738V78.56Z"/><path class="cls-3" d="M614,166a32.16,32.16,0,1,0,32.15-32.15A32.14,32.14,0,0,0,614,166"/></g></g></svg>